<svg xmlns="http://www.w3.org/2000/svg" width="33.995" height="35.684" viewBox="0 0 33.995 35.684"><defs><style>.a{fill:#393b41;}</style></defs><g transform="translate(-0.203 0)"><path class="a" d="M4.849,32.2A4.644,4.644,0,0,0,.2,36.866,4.537,4.537,0,0,0,1.132,39.6l6.5-6.488A4.66,4.66,0,0,0,4.849,32.2Zm0,0" transform="translate(0 -29.482)"/><path class="a" d="M314.7,33.149l6.5,6.5a4.535,4.535,0,0,0,.929-2.737,4.6,4.6,0,0,0-1.377-3.32A4.662,4.662,0,0,0,314.7,33.149Zm0,0" transform="translate(-287.932 -29.515)"/><path class="a" d="M75.026,365.113a.472.472,0,0,0-.042.372.5.5,0,0,0,.237.287.476.476,0,0,0,.625-.186l2.543-4.46c-.271-.169-.532-.338-.786-.524Zm0,0" transform="translate(-68.445 -330.138)"/><path class="a" d="M102.8,119.6a9.1,9.1,0,1,0,9.1,9.1A9.1,9.1,0,0,0,102.8,119.6Zm3.987,12.816a.653.653,0,0,1-.541.279.69.69,0,0,1-.4-.127L102,129.79a.685.685,0,0,1-.3-.549v-4.908a.676.676,0,0,1,1.352,0v4.562l3.574,2.577a.679.679,0,0,1,.16.946Zm0,0" transform="translate(-85.602 -109.497)"/><path class="a" d="M288.087,360.5c-.253.186-.515.355-.786.524l2.543,4.461a.468.468,0,0,0,.617.186.486.486,0,0,0,.245-.287.479.479,0,0,0-.042-.372Zm0,0" transform="translate(-262.844 -330.048)"/><path class="a" d="M66.088,79.5A12.486,12.486,0,1,0,78.574,91.99,12.5,12.5,0,0,0,66.088,79.5Zm0,22.936a10.45,10.45,0,1,1,10.45-10.45A10.45,10.45,0,0,1,66.088,102.44Zm0,0" transform="translate(-48.888 -72.787)"/><path class="a" d="M156.078,4.056h2.534V6h1.352V4.056h2.45a.7.7,0,0,0,.676-.7V.651a.657.657,0,0,0-.676-.65h-6.336a.657.657,0,0,0-.676.65v2.7A.7.7,0,0,0,156.078,4.056Zm0,0" transform="translate(-142.089 0)"/></g></svg>