<svg xmlns="http://www.w3.org/2000/svg" width="18.059" height="21.529" viewBox="0 0 18.059 21.529"><defs><style>.a{opacity:0.5;}.b{fill:#707070;}</style></defs><g class="a" transform="translate(-3.467)"><path class="b" d="M21.526,17l-.073.087A11.626,11.626,0,0,1,12.5,21.529a11.625,11.625,0,0,1-8.958-4.445L3.467,17l.017-.112A9.231,9.231,0,0,1,7.91,10.078l.17-.1.136.142a5.9,5.9,0,0,0,8.56,0l.136-.142.17.1a9.233,9.233,0,0,1,4.427,6.808ZM12.5,10.752A5.376,5.376,0,1,0,7.121,5.376,5.382,5.382,0,0,0,12.5,10.752Z" transform="translate(0)"/></g></svg>