<svg xmlns="http://www.w3.org/2000/svg" width="19.718" height="19.674" viewBox="0 0 19.718 19.674"><defs><style>.a{opacity:0.5;}.b{fill:#707070;}</style></defs><g class="a" transform="translate(0 -0.394)"><g transform="translate(0 0.394)"><g transform="translate(0 0)"><path class="b" d="M19.276,15.955l-3.045-3.046a1.588,1.588,0,0,0-2.239.042l-1.534,1.534-.3-.168a15.267,15.267,0,0,1-3.69-2.669,15.352,15.352,0,0,1-2.674-3.7c-.057-.1-.111-.2-.165-.3l1.03-1.028.506-.507A1.586,1.586,0,0,0,7.2,3.881L4.157.835A1.586,1.586,0,0,0,1.918.878l-.858.863.023.023A4.963,4.963,0,0,0,.377,3.011,5.172,5.172,0,0,0,.062,4.277c-.4,3.333,1.121,6.38,5.255,10.514,5.714,5.714,10.32,5.282,10.518,5.261a5.145,5.145,0,0,0,1.269-.319,4.946,4.946,0,0,0,1.243-.7l.019.017.869-.851A1.589,1.589,0,0,0,19.276,15.955Z" transform="translate(0 -0.394)"/></g></g></g></svg>