<svg xmlns="http://www.w3.org/2000/svg" width="22.222" height="16.667" viewBox="0 0 22.222 16.667"><defs><style>.a{opacity:0.5;}.b{fill:#707070;}</style></defs><g class="a" transform="translate(0 -64)"><g transform="translate(0 64)"><path class="b" d="M7.077,65.352c3.05,2.583,8.4,7.127,9.974,8.544a.929.929,0,0,0,1.344,0c1.574-1.418,6.926-5.963,9.976-8.546a.463.463,0,0,0,.065-.639A1.839,1.839,0,0,0,26.984,64H8.465a1.838,1.838,0,0,0-1.453.713A.463.463,0,0,0,7.077,65.352Z" transform="translate(-6.614 -64)"/><path class="b" d="M21.954,126.455a.461.461,0,0,0-.494.067c-3.382,2.867-7.7,6.543-9.057,7.766a1.875,1.875,0,0,1-2.584,0c-1.448-1.3-6.3-5.425-9.056-7.766a.463.463,0,0,0-.762.353v11.643a1.854,1.854,0,0,0,1.852,1.852H20.37a1.854,1.854,0,0,0,1.852-1.852V126.875A.463.463,0,0,0,21.954,126.455Z" transform="translate(0 -123.703)"/></g></g></svg>