<svg xmlns="http://www.w3.org/2000/svg" width="38" height="37.998" viewBox="0 0 38 37.998"><path d="M37.362.647A2.463,2.463,0,0,0,35.549.011c-2.741,0-7.184,2.667-9.588,4.256l-.191.126-.547,4.313L23.777,5.774l-.479.351a78.154,78.154,0,0,0-8.787,7.507c-.473.473-.938.953-1.383,1.429l-.092.1L11.1,23.66l-1.017-5.073L9.42,19.5c-.394.54-.766,1.079-1.1,1.6l-.062.1-.823,6.492-1.285-2.6-.352,1.249a6.162,6.162,0,0,0,0,4.111L.365,35.883a1.245,1.245,0,0,0,1.761,1.761l5.431-5.431a4.575,4.575,0,0,0,1.845.35h0a8.455,8.455,0,0,0,2.269-.348l1.249-.352-2.605-1.285,6.492-.823.1-.062c.523-.338,1.063-.71,1.6-1.1l.915-.668L14.349,26.9l8.5-1.931.1-.092c.476-.446.957-.911,1.429-1.383A75.891,75.891,0,0,0,34.2,11.346l1.444-2.4.008-.014C38.03,4.679,38.606,1.891,37.362.647Z" transform="translate(0 -0.011)"/></svg>