<svg xmlns="http://www.w3.org/2000/svg" width="109.162" height="109.162" viewBox="0 0 109.162 109.162"><g transform="matrix(-0.839, 0.545, -0.545, -0.839, 109.162, 66.183)"><g transform="translate(0 0)"><g transform="translate(0)"><path d="M78.455.445a1.54,1.54,0,0,0-1.6-.355L12.837,22.916A8.427,8.427,0,0,0,.642,33.324a82.646,82.646,0,0,0,18,26.944,82.642,82.642,0,0,0,26.944,18,8.425,8.425,0,0,0,10.969-11.11L78.831,2.04A1.542,1.542,0,0,0,78.455.445ZM22.53,22.732l6.785-2.419a3.928,3.928,0,1,1-6.785,2.419Zm31.227,49.8a5.354,5.354,0,0,1-6.988,2.894A79.446,79.446,0,0,1,3.49,32.144a5.348,5.348,0,0,1,9.882-4.093A68.928,68.928,0,0,0,28.389,50.525,68.931,68.931,0,0,0,50.862,65.542,5.354,5.354,0,0,1,53.757,72.529ZM67.45,25.79a3.973,3.973,0,0,1-.418-.03,3.929,3.929,0,1,1,2.841-7.054ZM70.9,15.709a7.01,7.01,0,1,0-4.472,13.076l-3.063,8.958-3.523-2.7a1.541,1.541,0,0,0-1.877,2.446l4.347,3.336-7.967,23.3a8.4,8.4,0,0,0-2.3-1.424A65.757,65.757,0,0,1,16.221,26.871a8.425,8.425,0,0,0-.865-1.581l4.127-1.472a7.018,7.018,0,0,0,6.05,6.132,7.108,7.108,0,0,0,.93.061,7.009,7.009,0,0,0,5.894-10.783L51.517,12.4l.726,1.753a1.541,1.541,0,0,0,2.848-1.18l-.667-1.61L74.88,4.067Z"/></g></g><g transform="translate(13.801 40.629)"><g transform="translate(0 0)"><path d="M2.844.719,2.822.685A1.541,1.541,0,1,0,1.549,3.094,1.542,1.542,0,0,0,2.844.719Z" transform="translate(0 0)"/></g></g><g transform="translate(7.323 28.377)"><g transform="translate(0 0)"><path d="M6.978,9.143A72.952,72.952,0,0,1,2.965.952,1.541,1.541,0,1,0,.118,2.131,76.023,76.023,0,0,0,4.3,10.67,1.541,1.541,0,1,0,6.978,9.143Z"/></g></g><g transform="translate(40.305 19.666)"><g transform="translate(0 0)"><path d="M7.927.061A7.011,7.011,0,1,0,6.1,13.963,7.011,7.011,0,0,0,7.927.061Zm2.98,7.464a3.936,3.936,0,0,1-3.888,3.416,3.978,3.978,0,0,1-.52-.034A3.929,3.929,0,0,1,7,3.083a3.978,3.978,0,0,1,.52.034A3.933,3.933,0,0,1,10.907,7.525Z" transform="translate(0 0)"/></g></g><g transform="translate(39.903 38.837)"><g transform="translate(0 0)"><path d="M7.928.061A7.005,7.005,0,0,0,.061,6.1,7.011,7.011,0,0,0,6.1,13.963a7.007,7.007,0,0,0,7.866-6.036A7.019,7.019,0,0,0,7.928.061Zm2.98,7.464a3.936,3.936,0,0,1-3.888,3.416,4,4,0,0,1-.519-.034,3.929,3.929,0,0,1,.506-7.824,3.978,3.978,0,0,1,.52.034A3.933,3.933,0,0,1,10.907,7.525Z"/></g></g><g transform="translate(31.185 31.875)"><g transform="translate(0 0)"><path d="M6.48.637,1.743.014a1.541,1.541,0,1,0-.4,3.056l4.737.624A1.541,1.541,0,0,0,6.48.637Z"/></g></g><g transform="translate(31.775 39.368)"><g transform="translate(0 0)"><path d="M3.488,4.519,3.069,1.34a1.541,1.541,0,0,0-3.056.4L.432,4.921a1.541,1.541,0,1,0,3.056-.4Z" transform="translate(0 0)"/></g></g></g></svg>