<svg xmlns="http://www.w3.org/2000/svg" width="101.145" height="101.145" viewBox="0 0 101.145 101.145"><g transform="matrix(0.342, -0.94, 0.94, 0.342, 0, 74.154)"><g transform="translate(0 0)"><g transform="translate(0 0)"><path d="M.458.445A1.54,1.54,0,0,1,2.059.09L66.076,22.916a8.427,8.427,0,0,1,12.2,10.409,82.646,82.646,0,0,1-18,26.944,82.641,82.641,0,0,1-26.944,18,8.425,8.425,0,0,1-10.969-11.11L.083,2.04A1.542,1.542,0,0,1,.458.445ZM56.383,22.732,49.6,20.313a3.928,3.928,0,1,0,6.785,2.419Zm-31.227,49.8a5.354,5.354,0,0,0,6.988,2.894A79.446,79.446,0,0,0,75.424,32.145a5.348,5.348,0,1,0-9.882-4.093A68.928,68.928,0,0,1,50.525,50.525,68.93,68.93,0,0,1,28.051,65.542,5.354,5.354,0,0,0,25.157,72.529ZM11.463,25.79a3.975,3.975,0,0,0,.418-.03A3.929,3.929,0,1,0,9.04,18.706ZM8.016,15.709a7.01,7.01,0,1,1,4.472,13.076l3.063,8.958,3.523-2.7a1.541,1.541,0,0,1,1.877,2.446L16.6,40.821l7.968,23.3a8.4,8.4,0,0,1,2.3-1.424A65.757,65.757,0,0,0,62.693,26.872a8.425,8.425,0,0,1,.865-1.581L59.43,23.819a7.018,7.018,0,0,1-6.05,6.132,7.108,7.108,0,0,1-.93.061,7.009,7.009,0,0,1-5.894-10.783L27.4,12.4l-.726,1.753a1.541,1.541,0,1,1-2.848-1.18l.667-1.61L4.034,4.067Z"/></g></g><g transform="translate(62.023 40.63)"><g transform="translate(0 0)"><path d="M.245.719.267.685A1.541,1.541,0,1,1,1.54,3.094,1.542,1.542,0,0,1,.245.719Z"/></g></g><g transform="translate(64.409 28.377)"><g transform="translate(0 0)"><path d="M.2,9.143A72.948,72.948,0,0,0,4.216.952a1.541,1.541,0,1,1,2.848,1.18A76.021,76.021,0,0,1,2.88,10.67,1.541,1.541,0,1,1,.2,9.143Z"/></g></g><g transform="translate(24.586 19.666)"><g transform="translate(0 0)"><path d="M6.1.061a7.011,7.011,0,1,1,1.831,13.9A7.011,7.011,0,0,1,6.1.061ZM3.117,7.525A3.936,3.936,0,0,0,7,10.941a3.979,3.979,0,0,0,.52-.034,3.929,3.929,0,0,0-.506-7.824,3.977,3.977,0,0,0-.52.034A3.933,3.933,0,0,0,3.117,7.525Z"/></g></g><g transform="translate(24.987 38.837)"><g transform="translate(0 0)"><path d="M6.1.061A7.005,7.005,0,0,1,13.963,6.1a7.011,7.011,0,0,1-6.036,7.867A7.008,7.008,0,0,1,.061,7.927,7.019,7.019,0,0,1,6.1.061ZM3.116,7.525A3.936,3.936,0,0,0,7,10.941a4.008,4.008,0,0,0,.519-.034,3.929,3.929,0,0,0-.506-7.824,3.981,3.981,0,0,0-.52.034A3.933,3.933,0,0,0,3.116,7.525Z"/></g></g><g transform="translate(39.909 31.875)"><g transform="translate(0 0)"><path d="M1.34.637,6.077.014a1.541,1.541,0,0,1,.4,3.056l-4.737.624A1.541,1.541,0,0,1,1.34.637Z"/></g></g><g transform="translate(43.637 39.368)"><g transform="translate(0 0)"><path d="M.013,4.519.432,1.34a1.541,1.541,0,1,1,3.056.4L3.069,4.921a1.541,1.541,0,1,1-3.056-.4Z"/></g></g></g></svg>